<svg width="24" height="24" viewBox="0 0 24 24" fill="none" xmlns="http://www.w3.org/2000/svg">
<path fill-rule="evenodd" clip-rule="evenodd" d="M9.11969 7.68005C9.91495 7.68005 10.5597 7.03534 10.5597 6.24005C10.5597 5.44476 9.91495 4.80005 9.11969 4.80005C8.32439 4.80005 7.67969 5.44476 7.67969 6.24005C7.67969 7.03534 8.32439 7.68005 9.11969 7.68005ZM9.11969 13.44C9.91495 13.44 10.5597 12.7953 10.5597 12C10.5597 11.2048 9.91495 10.56 9.11969 10.56C8.32439 10.56 7.67969 11.2048 7.67969 12C7.67969 12.7953 8.32439 13.44 9.11969 13.44ZM10.5597 17.76C10.5597 18.5553 9.91495 19.2 9.11969 19.2C8.32439 19.2 7.67969 18.5553 7.67969 17.76C7.67969 16.9648 8.32439 16.32 9.11969 16.32C9.91495 16.32 10.5597 16.9648 10.5597 17.76ZM14.8797 7.68005C15.675 7.68005 16.3197 7.03534 16.3197 6.24005C16.3197 5.44476 15.675 4.80005 14.8797 4.80005C14.0844 4.80005 13.4397 5.44476 13.4397 6.24005C13.4397 7.03534 14.0844 7.68005 14.8797 7.68005ZM16.3197 12C16.3197 12.7953 15.675 13.44 14.8797 13.44C14.0844 13.44 13.4397 12.7953 13.4397 12C13.4397 11.2048 14.0844 10.56 14.8797 10.56C15.675 10.56 16.3197 11.2048 16.3197 12ZM14.8797 19.2C15.675 19.2 16.3197 18.5553 16.3197 17.76C16.3197 16.9648 15.675 16.32 14.8797 16.32C14.0844 16.32 13.4397 16.9648 13.4397 17.76C13.4397 18.5553 14.0844 19.2 14.8797 19.2Z" fill="#555555"/>
</svg>
